:SAMPLES-PER-SECOND 30
:FULLY-SPECIFIED
:DEGREES
529
root  72.4192 38.3549 4.46412 -138.89 81.8717 -142.639
RightUpLeg  -21.0402 -2.36983 0.393395
RightLeg  17.0179 20.0672 6.4343
RightFoot  1.2753 -1.04644 9.61922
RightToes  2.91037e-010 0 -3.6325e-017
Spine  12.4943 -4.39286 -41.2571
Spine1  10.3782 -33.8271 82.0159
HEad  174.32 30.4702 -93.8112
LeftShoulder1  -26.6976 74.5185 -25.5683
LeftArm  20.831 -25.8385 -38.2455
LeftForeArm  -177.225 -29.0113 -174.713
LeftHand  14.9477 -20.4511 -59.9106
RightShoulder  0.453911 -5.92076 -30.4172
RightArm  100.561 80.7364 -155.728
RightForeArm  72.9759 71.1797 24.2035
RightHand  2.74811 -26.2055 -15.5047
LeftUpLeg  -24.611 5.16039 8.12992
LeftLeg  26.2082 -9.50412 -4.72706
LeftFoot  -0.412689 0.135011 -1.3843
LeftToes  -7.53974e-010 3.3384e-011 -1.25048e-011
530
root  72.0299 38.1327 4.68133 -147.247 81.5015 -149.558
RightUpLeg  -20.964 0.878572 -1.15228
RightLeg  23.6976 17.3746 7.97981
RightFoot  -4.90662 -0.673648 11.0073
RightToes  2.91037e-010 0 -3.6325e-017
Spine  12.0925 -4.6293 -42.137
Spine1  10.7476 -34.3386 82.1938
HEad  176.413 30.5492 -94.0699
LeftShoulder1  -27.5569 70.7888 -29.2031
LeftArm  29.474 -34.8678 -43.2756
LeftForeArm  177.602 -44.6947 -170.36
LeftHand  10.5788 -13.5858 -58.9749
RightShoulder  0.526371 -6.36381 -30.0757
RightArm  108.459 79.3279 -149.354
RightForeArm  71.1355 70.1924 22.9368
RightHand  3.01675 -32.9657 -12.5797
LeftUpLeg  -24.0808 4.95431 7.68788
LeftLeg  26.8186 -10.1989 -5.22928
LeftFoot  -0.571687 0.0725359 -0.735866
LeftToes  -7.53974e-010 3.3384e-011 -1.25048e-011
531
root  71.5933 37.8776 4.97334 -159.197 80.6664 -159.836
RightUpLeg  -20.759 3.97635 -2.56303
RightLeg  33.0626 14.8207 9.92418
RightFoot  -9.16312 -0.239194 9.53779
RightToes  2.91037e-010 0 -3.6325e-017
Spine  12.1258 -4.96274 -43.6274
Spine1  10.834 -35.172 83.0467
HEad  178.814 29.5848 -95.3997
LeftShoulder1  -27.0956 67.1839 -31.207
LeftArm  27.3346 -36.0494 -38.4971
LeftForeArm  161.993 -53.2057 -167.174
LeftHand  3.43826 0.0856693 -65.2808
RightShoulder  0.585702 -6.76186 -29.6477
RightArm  113.729 77.3398 -145.762
RightForeArm  68.5278 68.7584 21.1488
RightHand  3.03636 -36.5045 -11.2381
LeftUpLeg  -23.6331 3.99394 6.82537
LeftLeg  27.5225 -10.7606 -5.69588
LeftFoot  -0.446584 0.0861778 -0.877878
LeftToes  -7.53974e-010 3.3384e-011 -1.25048e-011
532
root  71.1999 37.7141 5.39715 -167.834 78.4302 -167.334
RightUpLeg  -19.5605 8.1309 -2.90392
RightLeg  40.6311 13.1412 11.6223
RightFoot  -11.6876 -0.0467079 10.1471
RightToes  2.91037e-010 0 -3.6325e-017
Spine  12.0167 -5.94299 -45.0127
Spine1  11.2981 -37.2296 84.6864
HEad  -177.222 27.4632 -100.262
LeftShoulder1  -26.9851 65.3551 -32.438
LeftArm  37.5605 -34.837 -52.5081
LeftForeArm  138.183 -62.4003 -149.076
LeftHand  -3.92355 10.5647 -69.86
RightShoulder  0.653993 -7.2089 -29.9199
RightArm  101.337 75.5825 -157.317
RightForeArm  69.5981 71.8157 25.2987
RightHand  2.38597 -36.2328 -9.06972
LeftUpLeg  -23.6603 2.47554 6.49469
LeftLeg  27.5966 -11.5118 -6.13297
LeftFoot  -0.293593 0.265136 -2.7245
LeftToes  -7.53974e-010 3.3384e-011 -1.25048e-011
533
root  70.7644 37.4363 5.93789 -173.236 75.2677 -171.999
RightUpLeg  -17.8747 9.85567 -2.29584
RightLeg  47.2378 14.6233 16.0528
RightFoot  -14.0954 0.189478 11.7912
RightToes  2.91037e-010 0 -3.6325e-017
Spine  13.0926 -4.28946 -42.1303
Spine1  9.03269 -31.7354 78.9499
HEad  -157.49 22.1437 -113.067
LeftShoulder1  -26.4434 61.9417 -34.4684
LeftArm  62.0827 -55.6788 -84.8659
LeftForeArm  36.4392 -77.8074 -46.7339
LeftHand  -5.40245 11.4631 -81.0965
RightShoulder  2.06123 -15.5158 -30.2076
RightArm  71.0404 69.9141 179.047
RightForeArm  87.5931 77.7364 44.1434
RightHand  1.69932 -36.6652 -6.60161
LeftUpLeg  -24.522 0.594696 6.31298
LeftLeg  28.0203 -13.0309 -7.08559
LeftFoot  0.683357 0.232282 -2.25874
LeftToes  -7.53974e-010 3.3384e-011 -1.25048e-011
534
root  70.2553 37.1626 6.53564 -177.516 71.9359 -175.382
RightUpLeg  -15.3556 10.8871 -1.39768
RightLeg  51.8378 16.3907 20.7943
RightFoot  -15.1672 0.359584 13.8626
RightToes  2.91037e-010 0 -3.6325e-017
Spine  18.8689 1.44201 -15.4478
Spine1  -3.68783 -6.88132 32.764
HEad  -119.02 32.6371 -88.1221
LeftShoulder1  -18.9165 41.4135 -41.0576
LeftArm  140.031 -63.2508 -129.9
LeftForeArm  48.2802 -77.8025 -59.1859
LeftHand  -1.24668 6.77405 -77.6613
RightShoulder  11.8284 -40.9407 -40.5933
RightArm  11.6016 40.4898 147.84
RightForeArm  179.412 76.5036 136.068
RightHand  0.81495 -38.4211 -3.3698
LeftUpLeg  -25.0609 -1.86803 5.94944
LeftLeg  27.8005 -14.0148 -7.56016
LeftFoot  1.88588 0.208017 -1.88702
LeftToes  -7.53974e-010 3.3384e-011 -1.25048e-011
535
root  69.6529 36.8942 7.13274 179.659 68.6243 -177.502
RightUpLeg  -12.5476 11.3484 -0.250096
RightLeg  53.7598 17.2914 23.2692
RightFoot  -15.6111 0.44461 14.5953
RightToes  2.91037e-010 0 -3.6325e-017
Spine  22.5069 0.871651 21.3553
Spine1  -9.50689 6.73903 -31.0463
HEad  -78.4137 32.8128 -52.025
LeftShoulder1  -7.73898 16.5526 -52.1516
LeftArm  179.445 -59.6707 -126.983
LeftForeArm  110.003 -76.1336 -119.993
LeftHand  0.123649 5.05301 -75.6176
RightShoulder  18.9177 -50.9161 -49.1108
RightArm  -24.5744 11.091 135.261
RightForeArm  -160.552 62.8991 161.777
RightHand  0.0165794 -40.2953 -0.761195
LeftUpLeg  -25.8673 -4.22409 5.6062
LeftLeg  27.2721 -14.9024 -7.87329
LeftFoot  2.75652 0.38847 -3.26858
LeftToes  -7.53974e-010 3.3384e-011 -1.25048e-011
536
root  68.9022 36.7138 7.74284 178.385 65.4479 -177.631
RightUpLeg  -9.05496 11.8611 1.80119
RightLeg  52.0382 17.2412 21.9741
RightFoot  -17.6928 0.496683 11.1661
RightToes  2.91037e-010 0 -3.6325e-017
Spine  12.6091 6.33596 -15.5547
Spine1  5.39562 -3.66972 38.8281
HEad  -98.4604 31.4014 -87.7828
LeftShoulder1  -4.34753 8.75724 -66.816
LeftArm  -10.8836 -66.1833 57.9364
LeftForeArm  175.355 -61.2393 -164.032
LeftHand  3.798 0.389755 -76.2241
RightShoulder  -7.85351 -51.5135 8.42163
RightArm  44.9153 49.956 143.585
RightForeArm  -177.636 78.4909 137.021
RightHand  -0.85841 -40.8403 1.87929
LeftUpLeg  -25.936 -6.26731 5.68152
LeftLeg  25.4288 -16.1671 -7.88071
LeftFoot  4.79539 0.643156 -4.75181
LeftToes  -7.53974e-010 3.3384e-011 -1.25048e-011
537
root  68.2144 36.6999 8.39345 178.022 61.2309 -177.276
RightUpLeg  -5.95193 11.0892 4.39565
RightLeg  46.6836 14.9924 16.1579
RightFoot  -19.3172 -0.18713 -0.633419
RightToes  2.91037e-010 0 -3.6325e-017
Spine  13.9451 4.93917 -12.1637
Spine1  3.1369 -3.17195 32.2573
HEad  -90.1839 39.3086 -83.2872
LeftShoulder1  -3.8422 9.07562 -59.3176
LeftArm  23.6774 -70.8412 25.3869
LeftForeArm  170.884 -64.6363 -159.302
LeftHand  3.01301 2.34475 -75.6572
RightShoulder  12.7598 -57.449 -34.3462
RightArm  12.1074 35.1631 144.62
RightForeArm  -165.263 67.0624 154.671
RightHand  -1.34123 -43.2803 3.06863
LeftUpLeg  -25.4183 -7.81156 5.62855
LeftLeg  21.4223 -19.2297 -7.83115
LeftFoot  8.30648 0.959006 -5.80816
LeftToes  -7.53974e-010 3.3384e-011 -1.25048e-011
538
root  67.4229 36.5526 9.15532 177.402 56.8952 -177.385
RightUpLeg  -4.81141 7.63311 5.98892
RightLeg  42.4973 10.086 9.4518
RightFoot  -22.2053 -0.752029 -6.44835
RightToes  2.91037e-010 0 -3.6325e-017
Spine  13.834 4.57241 -9.95918
Spine1  3.41137 -2.56712 28.6016
HEad  -83.9176 37.8902 -77.3604
LeftShoulder1  -3.82552 8.97354 -60.0025
LeftArm  50.4574 -70.6423 13.0591
LeftForeArm  175.015 -62.0768 -161.797
LeftHand  -7.95593 18.5564 -58.3709
RightShoulder  16.906 -39.718 -54.5471
RightArm  -6.68364 51.7893 134.423
RightForeArm  -141.839 67.1207 -161.636
RightHand  -0.395447 -34.0866 0.435885
LeftUpLeg  -25.2595 -8.78802 5.00408
LeftLeg  17.2817 -22.7403 -6.98699
LeftFoot  10.8817 1.61963 -8.57084
LeftToes  -7.53974e-010 3.3384e-011 -1.25048e-011
